M48
; DRILL file KiCad 10.0.5 date 2026-08-05T23:03:52
; FORMAT={-:-/ absolute / metric / decimal}
; #@! TF.CreationDate,2026-08-05T23:03:52-04:00
; #@! TF.GenerationSoftware,Kicad,Pcbnew,10.0.5
; #@! TF.FileFunction,Plated,1,2,PTH
FMAT,2
METRIC
; #@! TA.AperFunction,Plated,PTH,ViaDrill
T1C0.300
; #@! TA.AperFunction,Plated,PTH,ViaDrill
T2C0.500
; #@! TA.AperFunction,Plated,PTH,ComponentDrill
T3C0.800
; #@! TA.AperFunction,Plated,PTH,ComponentDrill
T4C1.000
; #@! TA.AperFunction,Plated,PTH,ComponentDrill
T5C1.500
; #@! TA.AperFunction,Plated,PTH,ComponentDrill
T6C3.000
; #@! TA.AperFunction,Plated,PTH,ComponentDrill
T7C3.048
%
G90
G05
T1
X-25.0Y-125.0
X-22.0Y-159.0
X-10.0Y-107.0
X-10.0Y-113.0
X-10.0Y-126.0
X-10.0Y-133.0
X-10.0Y-146.0
X-10.0Y-152.0
X9.0Y-126.0
X9.0Y-133.0
X9.0Y-143.0
X9.0Y-151.0
X9.0Y-165.0
X9.0Y-170.0
X10.0Y-106.0
X10.0Y-112.0
X28.0Y-133.0
X29.0Y-95.0
X29.0Y-107.0
X29.0Y-111.0
X29.0Y-125.0
X29.0Y-143.0
X29.0Y-150.0
X31.5Y-92.4
X47.0Y-126.0
X47.0Y-133.0
X48.0Y-107.0
X48.0Y-113.0
X48.0Y-144.0
X48.0Y-150.0
X49.0Y-94.0
X51.0Y-92.0
X66.0Y-133.0
X67.0Y-107.0
X67.0Y-112.0
X67.0Y-126.0
X67.0Y-143.0
X67.0Y-150.0
X85.0Y-133.0
X86.0Y-107.0
X86.0Y-112.0
X86.0Y-126.0
X86.0Y-143.0
X86.0Y-150.0
X86.0Y-163.0
X86.0Y-169.0
X98.0Y-145.0
X99.0Y-144.0
X101.0Y-92.0
X103.0Y-112.0
X104.0Y-92.0
X105.0Y-92.0
X105.0Y-125.0
X105.0Y-132.0
X106.0Y-144.0
X107.0Y-145.0
X108.0Y-111.0
X119.0Y-144.0
X123.0Y-112.0
X123.0Y-152.0
X124.0Y-106.0
X124.0Y-125.0
X124.0Y-131.0
X124.0Y-145.0
X124.0Y-160.0
X126.0Y-144.0
X138.0Y-144.0
X138.0Y-174.0
X143.0Y-107.0
X143.0Y-112.0
X143.0Y-126.0
X143.0Y-131.0
X143.0Y-145.0
X143.0Y-150.0
X143.0Y-158.0
X145.0Y-144.0
X145.0Y-171.0
X157.0Y-144.0
X162.0Y-106.0
X162.0Y-112.0
X162.0Y-125.0
X162.0Y-131.0
X162.0Y-145.0
X162.0Y-150.0
X162.0Y-160.0
X162.0Y-162.0
X163.0Y-144.0
X176.0Y-144.0
X181.0Y-108.0
X181.0Y-112.0
X181.0Y-125.0
X181.0Y-132.0
X181.0Y-144.0
X181.0Y-151.0
X183.0Y-143.0
X183.0Y-180.0
X191.0Y-160.0
X195.0Y-143.0
X200.0Y-106.0
X200.0Y-112.0
X200.0Y-126.0
X200.0Y-143.0
X200.0Y-162.0
X207.0Y-129.0
X209.0Y-141.0
X209.0Y-146.0
X209.0Y-160.0
X214.0Y-169.0
X216.0Y-169.0
X217.0Y-168.0
X220.0Y-188.0
X222.0Y-188.6
X238.0Y-106.0
X238.0Y-113.0
X238.0Y-125.0
X238.0Y-132.0
X238.0Y-146.0
X238.0Y-151.0
X239.0Y-112.0
X241.0Y-168.0
X252.0Y-169.0
X254.0Y-113.0
X255.0Y-174.0
X255.0Y-175.0
X255.394Y-112.0
X257.0Y-178.0
X258.0Y-169.0
X260.0Y-111.0
X262.0Y-174.0
X262.0Y-175.0
X271.0Y-163.0
X272.0Y-164.0
X273.0Y-132.0
X273.715Y-164.715
X275.0Y-129.0
X277.0Y-125.0
X278.0Y-127.0
X283.0Y-138.0
X284.0Y-98.951
X285.0Y-109.0
X287.0Y-113.0
X287.0Y-124.0
X288.0Y-142.0
X290.0Y-99.0
X292.0Y-154.0
X292.0Y-157.0
X293.0Y-109.0
X294.0Y-125.0
X294.0Y-128.0
X294.0Y-130.0
X294.0Y-133.0
X294.0Y-138.0
X294.0Y-163.0
X294.0Y-164.0
X296.0Y-139.0
X298.0Y-162.105
X300.0Y-93.0
X300.0Y-163.445
X301.0Y-150.0
X301.0Y-153.0
X301.069Y-98.931
X306.0Y-123.0
X308.0Y-146.0
X308.0Y-186.0
X309.0Y-122.0
X309.0Y-152.0
X309.0Y-183.0
X310.0Y-109.0
X310.0Y-179.0
X311.0Y-162.775
X313.0Y-177.0
X314.0Y-149.0
X316.0Y-153.0
X317.0Y-157.0
X317.0Y-158.0
X317.0Y-182.0
X318.0Y-174.0
X319.0Y-164.0
X320.0Y-155.0
X323.0Y-176.0
T2
X270.0Y-111.95
X270.0Y-113.25
X281.0Y-111.95
X284.0Y-140.0
X286.0Y-112.0
X297.0Y-156.0
X301.0Y-156.0
X315.0Y-156.0
X315.0Y-159.0
X317.0Y-180.0
T3
X-30.956Y-102.394
X-30.956Y-110.014
X-30.956Y-121.444
X-30.956Y-129.064
X-30.956Y-178.594
X-30.956Y-186.214
X-11.906Y-102.394
X-11.906Y-110.014
X-11.906Y-121.444
X-11.906Y-129.064
X-11.906Y-140.494
X-11.906Y-148.114
X-11.906Y-159.544
X-11.906Y-167.164
X7.144Y-102.394
X7.144Y-110.014
X7.144Y-121.444
X7.144Y-129.064
X7.144Y-140.494
X7.144Y-148.114
X7.144Y-159.544
X7.144Y-167.164
X7.144Y-178.594
X7.144Y-186.214
X26.194Y-102.394
X26.194Y-110.014
X26.194Y-121.444
X26.194Y-129.064
X26.194Y-140.494
X26.194Y-148.114
X26.194Y-159.544
X26.194Y-167.164
X26.194Y-178.594
X26.194Y-186.214
X45.244Y-102.394
X45.244Y-110.014
X45.244Y-121.444
X45.244Y-129.064
X45.244Y-140.494
X45.244Y-148.114
X45.244Y-159.544
X45.244Y-167.164
X64.294Y-102.394
X64.294Y-110.014
X64.294Y-121.444
X64.294Y-129.064
X64.294Y-140.494
X64.294Y-148.114
X64.294Y-159.544
X64.294Y-167.164
X83.344Y-102.394
X83.344Y-110.014
X83.344Y-121.444
X83.344Y-129.064
X83.344Y-140.494
X83.344Y-148.114
X83.344Y-159.544
X83.344Y-167.164
X102.394Y-102.394
X102.394Y-110.014
X102.394Y-121.444
X102.394Y-129.064
X102.394Y-140.494
X102.394Y-148.114
X102.394Y-159.544
X102.394Y-167.164
X102.394Y-178.594
X102.394Y-186.214
X121.444Y-102.394
X121.444Y-110.014
X121.444Y-121.444
X121.444Y-129.064
X121.444Y-140.494
X121.444Y-148.114
X121.444Y-159.544
X121.444Y-167.164
X140.494Y-102.394
X140.494Y-110.014
X140.494Y-121.444
X140.494Y-129.064
X140.494Y-140.494
X140.494Y-148.114
X140.494Y-159.544
X140.494Y-167.164
X159.544Y-102.394
X159.544Y-110.014
X159.544Y-121.444
X159.544Y-129.064
X159.544Y-140.494
X159.544Y-148.114
X159.544Y-159.544
X159.544Y-167.164
X178.594Y-102.394
X178.594Y-110.014
X178.594Y-121.444
X178.594Y-129.064
X178.594Y-140.494
X178.594Y-148.114
X178.594Y-159.544
X178.594Y-167.164
X178.594Y-178.594
X178.594Y-186.214
X197.644Y-102.394
X197.644Y-110.014
X197.644Y-121.444
X197.644Y-129.064
X197.644Y-140.494
X197.644Y-148.114
X197.644Y-159.544
X197.644Y-167.164
X197.644Y-178.594
X197.644Y-186.214
X216.694Y-121.444
X216.694Y-129.064
X216.694Y-178.594
X216.694Y-186.214
X235.744Y-102.394
X235.744Y-110.014
X235.744Y-121.444
X235.744Y-129.064
X235.744Y-140.494
X235.744Y-148.114
X235.744Y-159.544
X235.744Y-167.164
X235.744Y-178.594
X235.744Y-186.214
X254.794Y-102.394
X254.794Y-110.014
X254.794Y-121.444
X254.794Y-129.064
X254.794Y-140.494
X254.794Y-148.114
X254.794Y-159.544
X254.794Y-167.164
X254.794Y-178.594
X254.794Y-186.214
T4
X266.38Y-115.0
X267.75Y-97.5
X267.75Y-102.5
X268.92Y-115.0
X271.46Y-115.0
X274.0Y-115.0
X276.54Y-115.0
X279.08Y-115.0
X281.62Y-115.0
X282.25Y-97.5
X282.25Y-100.0
X282.25Y-102.5
X284.16Y-115.0
X298.11Y-92.182
X298.11Y-94.722
X298.11Y-97.262
X298.11Y-99.802
X298.11Y-102.343
X298.11Y-104.882
X298.11Y-107.422
X298.11Y-109.962
X298.11Y-112.502
X298.11Y-115.042
X298.11Y-117.582
X298.11Y-120.122
X298.11Y-122.662
X298.11Y-125.203
X298.11Y-127.742
X298.11Y-130.282
X298.11Y-132.822
X298.11Y-135.362
X298.11Y-137.903
X298.11Y-140.442
X315.89Y-92.182
X315.89Y-94.722
X315.89Y-97.262
X315.89Y-99.802
X315.89Y-102.343
X315.89Y-104.882
X315.89Y-107.422
X315.89Y-109.962
X315.89Y-112.502
X315.89Y-115.042
X315.89Y-117.582
X315.89Y-120.122
X315.89Y-122.662
X315.89Y-125.203
X315.89Y-127.742
X315.89Y-130.282
X315.89Y-132.822
X315.89Y-135.362
X315.89Y-137.903
X315.89Y-140.442
T6
X-44.45Y-97.79
X-44.45Y-116.84
X-44.45Y-173.99
X-38.1Y-95.25
X-38.1Y-114.3
X-38.1Y-171.45
X-34.925Y-135.89
X-34.925Y-154.94
X-28.575Y-133.35
X-28.575Y-152.4
X-25.4Y-97.79
X-25.4Y-116.84
X-19.05Y-95.25
X-19.05Y-114.3
X-15.875Y-173.99
X-9.525Y-171.45
X-6.35Y-97.79
X-6.35Y-116.84
X-6.35Y-135.89
X-6.35Y-154.94
X0.0Y-95.25
X0.0Y-114.3
X0.0Y-133.35
X0.0Y-152.4
X12.7Y-97.79
X12.7Y-116.84
X12.7Y-135.89
X12.7Y-154.94
X12.7Y-173.99
X19.05Y-95.25
X19.05Y-114.3
X19.05Y-133.35
X19.05Y-152.4
X19.05Y-171.45
X31.75Y-97.79
X31.75Y-116.84
X31.75Y-135.89
X31.75Y-154.94
X38.1Y-95.25
X38.1Y-114.3
X38.1Y-133.35
X38.1Y-152.4
X50.8Y-97.79
X50.8Y-116.84
X50.8Y-135.89
X50.8Y-154.94
X57.15Y-95.25
X57.15Y-114.3
X57.15Y-133.35
X57.15Y-152.4
X69.85Y-97.79
X69.85Y-116.84
X69.85Y-135.89
X69.85Y-154.94
X76.2Y-95.25
X76.2Y-114.3
X76.2Y-133.35
X76.2Y-152.4
X88.9Y-97.79
X88.9Y-116.84
X88.9Y-135.89
X88.9Y-154.94
X88.9Y-173.99
X95.25Y-95.25
X95.25Y-114.3
X95.25Y-133.35
X95.25Y-152.4
X95.25Y-171.45
X107.95Y-97.79
X107.95Y-116.84
X107.95Y-135.89
X107.95Y-154.94
X114.3Y-95.25
X114.3Y-114.3
X114.3Y-133.35
X114.3Y-152.4
X127.0Y-97.79
X127.0Y-116.84
X127.0Y-135.89
X127.0Y-154.94
X133.35Y-95.25
X133.35Y-114.3
X133.35Y-133.35
X133.35Y-152.4
X146.05Y-97.79
X146.05Y-116.84
X146.05Y-135.89
X146.05Y-154.94
X152.4Y-95.25
X152.4Y-114.3
X152.4Y-133.35
X152.4Y-152.4
X165.1Y-97.79
X165.1Y-116.84
X165.1Y-135.89
X165.1Y-154.94
X165.1Y-173.99
X171.45Y-95.25
X171.45Y-114.3
X171.45Y-133.35
X171.45Y-152.4
X171.45Y-171.45
X184.15Y-97.79
X184.15Y-116.84
X184.15Y-135.89
X184.15Y-154.94
X184.15Y-173.99
X190.5Y-95.25
X190.5Y-114.3
X190.5Y-133.35
X190.5Y-152.4
X190.5Y-171.45
X203.2Y-116.84
X203.2Y-173.99
X209.55Y-114.3
X209.55Y-171.45
X212.725Y-135.89
X212.725Y-154.94
X212.884Y-97.79
X219.075Y-133.35
X219.075Y-152.4
X219.234Y-95.25
X222.25Y-116.84
X222.25Y-173.99
X228.6Y-114.3
X228.6Y-171.45
X241.3Y-97.79
X241.3Y-116.84
X241.3Y-135.89
X241.3Y-154.94
X241.3Y-173.99
X247.65Y-95.25
X247.65Y-114.3
X247.65Y-133.35
X247.65Y-152.4
X247.65Y-171.45
T7
X35.56Y-183.515
X149.86Y-183.515
X204.629Y-93.345
X204.629Y-145.415
X204.629Y-150.495
X228.441Y-93.345
X228.441Y-145.415
X228.441Y-150.495
T5
G00X275.4Y-94.4
M15
G01X274.1Y-94.4
M16
G05
G00X275.4Y-105.6
M15
G01X274.1Y-105.6
M16
G05
M30
