%TF.GenerationSoftware,KiCad,Pcbnew,10.0.5*%
%TF.CreationDate,2026-08-05T23:03:49-04:00*%
%TF.ProjectId,Beach-Board PCB File,42656163-682d-4426-9f61-726420504342,rev?*%
%TF.SameCoordinates,Original*%
%TF.FileFunction,Soldermask,Top*%
%TF.FilePolarity,Negative*%
%FSLAX46Y46*%
G04 Gerber Fmt 4.6, Leading zero omitted, Abs format (unit mm)*
G04 Created by KiCad (PCBNEW 10.0.5) date 2026-08-05 23:03:49*
%MOMM*%
%LPD*%
G01*
G04 APERTURE LIST*
G04 Aperture macros list*
%AMRoundRect*
0 Rectangle with rounded corners*
0 $1 Rounding radius*
0 $2 $3 $4 $5 $6 $7 $8 $9 X,Y pos of 4 corners*
0 Add a 4 corners polygon primitive as box body*
4,1,4,$2,$3,$4,$5,$6,$7,$8,$9,$2,$3,0*
0 Add four circle primitives for the rounded corners*
1,1,$1+$1,$2,$3*
1,1,$1+$1,$4,$5*
1,1,$1+$1,$6,$7*
1,1,$1+$1,$8,$9*
0 Add four rect primitives between the rounded corners*
20,1,$1+$1,$2,$3,$4,$5,0*
20,1,$1+$1,$4,$5,$6,$7,0*
20,1,$1+$1,$6,$7,$8,$9,0*
20,1,$1+$1,$8,$9,$2,$3,0*%
%AMFreePoly0*
4,1,37,0.603843,0.796157,0.639018,0.796157,0.711114,0.766294,0.766294,0.711114,0.796157,0.639018,0.796157,0.603843,0.800000,0.600000,0.800000,-0.600000,0.796157,-0.603843,0.796157,-0.639018,0.766294,-0.711114,0.711114,-0.766294,0.639018,-0.796157,0.603843,-0.796157,0.600000,-0.800000,0.000000,-0.800000,0.000000,-0.796148,-0.078414,-0.796148,-0.232228,-0.765552,-0.377117,-0.705537,
-0.507515,-0.618408,-0.618408,-0.507515,-0.705537,-0.377117,-0.765552,-0.232228,-0.796148,-0.078414,-0.796148,0.078414,-0.765552,0.232228,-0.705537,0.377117,-0.618408,0.507515,-0.507515,0.618408,-0.377117,0.705537,-0.232228,0.765552,-0.078414,0.796148,0.000000,0.796148,0.000000,0.800000,0.600000,0.800000,0.603843,0.796157,0.603843,0.796157,$1*%
%AMFreePoly1*
4,1,37,0.000000,0.796148,0.078414,0.796148,0.232228,0.765552,0.377117,0.705537,0.507515,0.618408,0.618408,0.507515,0.705537,0.377117,0.765552,0.232228,0.796148,0.078414,0.796148,-0.078414,0.765552,-0.232228,0.705537,-0.377117,0.618408,-0.507515,0.507515,-0.618408,0.377117,-0.705537,0.232228,-0.765552,0.078414,-0.796148,0.000000,-0.796148,0.000000,-0.800000,-0.600000,-0.800000,
-0.603843,-0.796157,-0.639018,-0.796157,-0.711114,-0.766294,-0.766294,-0.711114,-0.796157,-0.639018,-0.796157,-0.603843,-0.800000,-0.600000,-0.800000,0.600000,-0.796157,0.603843,-0.796157,0.639018,-0.766294,0.711114,-0.711114,0.766294,-0.639018,0.796157,-0.603843,0.796157,-0.600000,0.800000,0.000000,0.800000,0.000000,0.796148,0.000000,0.796148,$1*%
G04 Aperture macros list end*
%ADD10RoundRect,0.225000X-0.225000X-0.250000X0.225000X-0.250000X0.225000X0.250000X-0.225000X0.250000X0*%
%ADD11C,2.200000*%
%ADD12RoundRect,0.225000X0.225000X0.250000X-0.225000X0.250000X-0.225000X-0.250000X0.225000X-0.250000X0*%
%ADD13R,1.500000X0.800000*%
%ADD14RoundRect,0.362500X0.637500X-0.362500X0.637500X0.362500X-0.637500X0.362500X-0.637500X-0.362500X0*%
%ADD15RoundRect,0.250000X0.625000X-0.400000X0.625000X0.400000X-0.625000X0.400000X-0.625000X-0.400000X0*%
%ADD16RoundRect,0.250000X-0.625000X0.400000X-0.625000X-0.400000X0.625000X-0.400000X0.625000X0.400000X0*%
%ADD17RoundRect,0.225000X-0.250000X0.225000X-0.250000X-0.225000X0.250000X-0.225000X0.250000X0.225000X0*%
%ADD18R,2.000000X2.000000*%
%ADD19C,2.000000*%
%ADD20R,3.200000X2.000000*%
%ADD21R,1.700000X1.700000*%
%ADD22C,1.700000*%
%ADD23C,1.750000*%
%ADD24C,3.987800*%
%ADD25C,3.300000*%
%ADD26RoundRect,0.250000X0.550000X-0.550000X0.550000X0.550000X-0.550000X0.550000X-0.550000X-0.550000X0*%
%ADD27C,1.600000*%
%ADD28C,4.000000*%
%ADD29C,3.048000*%
%ADD30RoundRect,0.200000X0.600000X0.600000X-0.600000X0.600000X-0.600000X-0.600000X0.600000X-0.600000X0*%
%ADD31FreePoly0,180.000000*%
%ADD32FreePoly1,180.000000*%
G04 APERTURE END LIST*
D10*
%TO.C,C2*%
X298225000Y-156000000D03*
X299775000Y-156000000D03*
%TD*%
D11*
%TO.C,H6*%
X273000000Y-179000000D03*
%TD*%
D12*
%TO.C,C1*%
X268270000Y-111000000D03*
X266720000Y-111000000D03*
%TD*%
D13*
%TO.C,J2*%
X314900000Y-183205000D03*
X314900000Y-182105000D03*
X314900000Y-181005000D03*
X314900000Y-179905000D03*
X314900000Y-178805000D03*
X314900000Y-177705000D03*
X314900000Y-176605000D03*
X314900000Y-175505000D03*
D14*
X312300000Y-186875000D03*
X320600000Y-186875000D03*
X312300000Y-173125000D03*
X320600000Y-173125000D03*
%TD*%
D11*
%TO.C,H2*%
X260000000Y-95000000D03*
%TD*%
D15*
%TO.C,R1*%
X300000000Y-186550000D03*
X300000000Y-183450000D03*
%TD*%
D16*
%TO.C,R2*%
X304000000Y-183450000D03*
X304000000Y-186550000D03*
%TD*%
D11*
%TO.C,H4*%
X74000000Y-171000000D03*
%TD*%
D17*
%TO.C,C3*%
X307000000Y-183225000D03*
X307000000Y-184775000D03*
%TD*%
D11*
%TO.C,H1*%
X-12000000Y-94000000D03*
%TD*%
D18*
%TO.C,SW1*%
X282250000Y-102500000D03*
D19*
X282250000Y-97500000D03*
X282250000Y-100000000D03*
D20*
X274750000Y-105600000D03*
X274750000Y-94400000D03*
D19*
X267750000Y-97500000D03*
X267750000Y-102500000D03*
%TD*%
D11*
%TO.C,H3*%
X-31000000Y-167000000D03*
%TD*%
D21*
%TO.C,J1*%
X266380000Y-115000000D03*
D22*
X268920000Y-115000000D03*
X271460000Y-115000000D03*
X274000000Y-115000000D03*
X276540000Y-115000000D03*
X279080000Y-115000000D03*
X281620000Y-115000000D03*
X284160000Y-115000000D03*
%TD*%
D11*
%TO.C,H5*%
X112000000Y-171000000D03*
%TD*%
D23*
%TO.C,MX49*%
X173990000Y-157480000D03*
D24*
X168910000Y-157480000D03*
D23*
X163830000Y-157480000D03*
D25*
X165100000Y-154940000D03*
X171450000Y-152400000D03*
%TD*%
D26*
%TO.C,D43*%
X26193750Y-148113750D03*
D27*
X26193750Y-140493750D03*
%TD*%
D23*
%TO.C,MX28*%
X21590000Y-119380000D03*
D24*
X16510000Y-119380000D03*
D23*
X11430000Y-119380000D03*
D25*
X12700000Y-116840000D03*
X19050000Y-114300000D03*
%TD*%
D26*
%TO.C,D40*%
X83343750Y-148113750D03*
D27*
X83343750Y-140493750D03*
%TD*%
D23*
%TO.C,MX5*%
X154940000Y-100330000D03*
D24*
X149860000Y-100330000D03*
D23*
X144780000Y-100330000D03*
D25*
X146050000Y-97790000D03*
X152400000Y-95250000D03*
%TD*%
D26*
%TO.C,D10*%
X64293750Y-110013750D03*
D27*
X64293750Y-102393750D03*
%TD*%
D23*
%TO.C,MX59*%
X-26035000Y-157480000D03*
D24*
X-31115000Y-157480000D03*
D23*
X-36195000Y-157480000D03*
D25*
X-34925000Y-154940000D03*
X-28575000Y-152400000D03*
%TD*%
D26*
%TO.C,D14*%
X-11906250Y-110013750D03*
D27*
X-11906250Y-102393750D03*
%TD*%
D23*
%TO.C,MX68*%
X-35560000Y-176530000D03*
D24*
X-40640000Y-176530000D03*
D23*
X-45720000Y-176530000D03*
D25*
X-44450000Y-173990000D03*
X-38100000Y-171450000D03*
%TD*%
D26*
%TO.C,D44*%
X7143750Y-148113750D03*
D27*
X7143750Y-140493750D03*
%TD*%
D23*
%TO.C,MX51*%
X135890000Y-157480000D03*
D24*
X130810000Y-157480000D03*
D23*
X125730000Y-157480000D03*
D25*
X127000000Y-154940000D03*
X133350000Y-152400000D03*
%TD*%
D23*
%TO.C,MX29*%
X2540000Y-119380000D03*
D24*
X-2540000Y-119380000D03*
D23*
X-7620000Y-119380000D03*
D25*
X-6350000Y-116840000D03*
X0Y-114300000D03*
%TD*%
D26*
%TO.C,D53*%
X102393750Y-167163750D03*
D27*
X102393750Y-159543750D03*
%TD*%
D23*
%TO.C,MX38*%
X116840000Y-138430000D03*
D24*
X111760000Y-138430000D03*
D23*
X106680000Y-138430000D03*
D25*
X107950000Y-135890000D03*
X114300000Y-133350000D03*
%TD*%
D26*
%TO.C,D50*%
X159543750Y-167163750D03*
D27*
X159543750Y-159543750D03*
%TD*%
D23*
%TO.C,MX54*%
X78740000Y-157480000D03*
D24*
X73660000Y-157480000D03*
D23*
X68580000Y-157480000D03*
D25*
X69850000Y-154940000D03*
X76200000Y-152400000D03*
%TD*%
D23*
%TO.C,MX24*%
X97790000Y-119380000D03*
D24*
X92710000Y-119380000D03*
D23*
X87630000Y-119380000D03*
D25*
X88900000Y-116840000D03*
X95250000Y-114300000D03*
%TD*%
D26*
%TO.C,D32*%
X254793750Y-148113750D03*
D27*
X254793750Y-140493750D03*
%TD*%
D23*
%TO.C,MX9*%
X78740000Y-100330000D03*
D24*
X73660000Y-100330000D03*
D23*
X68580000Y-100330000D03*
D25*
X69850000Y-97790000D03*
X76200000Y-95250000D03*
%TD*%
D23*
%TO.C,MX20*%
X173990000Y-119380000D03*
D24*
X168910000Y-119380000D03*
D23*
X163830000Y-119380000D03*
D25*
X165100000Y-116840000D03*
X171450000Y-114300000D03*
%TD*%
D23*
%TO.C,MX18*%
X212090000Y-119380000D03*
D24*
X207010000Y-119380000D03*
D23*
X201930000Y-119380000D03*
D25*
X203200000Y-116840000D03*
X209550000Y-114300000D03*
%TD*%
D23*
%TO.C,MX66*%
X21590000Y-176530000D03*
D24*
X16510000Y-176530000D03*
D23*
X11430000Y-176530000D03*
D25*
X12700000Y-173990000D03*
X19050000Y-171450000D03*
%TD*%
D23*
%TO.C,MX58*%
X2540000Y-157480000D03*
D24*
X-2540000Y-157480000D03*
D23*
X-7620000Y-157480000D03*
D25*
X-6350000Y-154940000D03*
X0Y-152400000D03*
%TD*%
D23*
%TO.C,MX47*%
X221615000Y-157480000D03*
D24*
X216535000Y-157480000D03*
D23*
X211455000Y-157480000D03*
D25*
X212725000Y-154940000D03*
X219075000Y-152400000D03*
%TD*%
D23*
%TO.C,MX12*%
X21590000Y-100330000D03*
D24*
X16510000Y-100330000D03*
D23*
X11430000Y-100330000D03*
D25*
X12700000Y-97790000D03*
X19050000Y-95250000D03*
%TD*%
D26*
%TO.C,D45*%
X-11906250Y-148113750D03*
D27*
X-11906250Y-140493750D03*
%TD*%
D23*
%TO.C,MX65*%
X97790000Y-176530000D03*
D24*
X92710000Y-176530000D03*
D23*
X87630000Y-176530000D03*
D25*
X88900000Y-173990000D03*
X95250000Y-171450000D03*
%TD*%
D26*
%TO.C,D55*%
X64293750Y-167163750D03*
D27*
X64293750Y-159543750D03*
%TD*%
D23*
%TO.C,MX11*%
X40640000Y-100330000D03*
D24*
X35560000Y-100330000D03*
D23*
X30480000Y-100330000D03*
D25*
X31750000Y-97790000D03*
X38100000Y-95250000D03*
%TD*%
D24*
%TO.C,S6*%
X35560000Y-168275000D03*
D28*
X35560000Y-183515000D03*
D24*
X149860000Y-168275000D03*
D28*
X149860000Y-183515000D03*
%TD*%
D26*
%TO.C,D51*%
X140493750Y-167163750D03*
D27*
X140493750Y-159543750D03*
%TD*%
D26*
%TO.C,D60*%
X254793750Y-186213750D03*
D27*
X254793750Y-178593750D03*
%TD*%
D26*
%TO.C,D63*%
X197643750Y-186213750D03*
D27*
X197643750Y-178593750D03*
%TD*%
D26*
%TO.C,D29*%
X7143750Y-129063750D03*
D27*
X7143750Y-121443750D03*
%TD*%
D24*
%TO.C,S5*%
X-19208750Y-165735000D03*
D29*
X-19208750Y-150495000D03*
D24*
X-43021250Y-165735000D03*
D29*
X-43021250Y-150495000D03*
%TD*%
D26*
%TO.C,D6*%
X140493750Y-110013750D03*
D27*
X140493750Y-102393750D03*
%TD*%
D26*
%TO.C,D3*%
X197643750Y-110013750D03*
D27*
X197643750Y-102393750D03*
%TD*%
D30*
%TO.C,A1*%
X315890000Y-92182500D03*
D27*
X315890000Y-94722500D03*
D31*
X315890000Y-97262500D03*
D27*
X315890000Y-99802500D03*
X315890000Y-102342500D03*
X315890000Y-104882500D03*
X315890000Y-107422500D03*
D31*
X315890000Y-109962500D03*
D27*
X315890000Y-112502500D03*
X315890000Y-115042500D03*
X315890000Y-117582500D03*
X315890000Y-120122500D03*
D31*
X315890000Y-122662500D03*
D27*
X315890000Y-125202500D03*
X315890000Y-127742500D03*
X315890000Y-130282500D03*
X315890000Y-132822500D03*
D31*
X315890000Y-135362500D03*
D27*
X315890000Y-137902500D03*
X315890000Y-140442500D03*
X298110000Y-140442500D03*
X298110000Y-137902500D03*
D32*
X298110000Y-135362500D03*
D27*
X298110000Y-132822500D03*
X298110000Y-130282500D03*
X298110000Y-127742500D03*
X298110000Y-125202500D03*
D32*
X298110000Y-122662500D03*
D27*
X298110000Y-120122500D03*
X298110000Y-117582500D03*
X298110000Y-115042500D03*
X298110000Y-112502500D03*
D32*
X298110000Y-109962500D03*
D27*
X298110000Y-107422500D03*
X298110000Y-104882500D03*
X298110000Y-102342500D03*
X298110000Y-99802500D03*
D32*
X298110000Y-97262500D03*
D27*
X298110000Y-94722500D03*
X298110000Y-92182500D03*
%TD*%
D24*
%TO.C,S3*%
X-43021250Y-130175000D03*
D29*
X-43021250Y-145415000D03*
D24*
X-19208750Y-130175000D03*
D29*
X-19208750Y-145415000D03*
%TD*%
D23*
%TO.C,MX34*%
X193040000Y-138430000D03*
D24*
X187960000Y-138430000D03*
D23*
X182880000Y-138430000D03*
D25*
X184150000Y-135890000D03*
X190500000Y-133350000D03*
%TD*%
D23*
%TO.C,MX21*%
X154940000Y-119380000D03*
D24*
X149860000Y-119380000D03*
D23*
X144780000Y-119380000D03*
D25*
X146050000Y-116840000D03*
X152400000Y-114300000D03*
%TD*%
D23*
%TO.C,MX27*%
X40640000Y-119380000D03*
D24*
X35560000Y-119380000D03*
D23*
X30480000Y-119380000D03*
D25*
X31750000Y-116840000D03*
X38100000Y-114300000D03*
%TD*%
D26*
%TO.C,D36*%
X159543750Y-148113750D03*
D27*
X159543750Y-140493750D03*
%TD*%
D23*
%TO.C,MX22*%
X135890000Y-119380000D03*
D24*
X130810000Y-119380000D03*
D23*
X125730000Y-119380000D03*
D25*
X127000000Y-116840000D03*
X133350000Y-114300000D03*
%TD*%
D23*
%TO.C,MX35*%
X173990000Y-138430000D03*
D24*
X168910000Y-138430000D03*
D23*
X163830000Y-138430000D03*
D25*
X165100000Y-135890000D03*
X171450000Y-133350000D03*
%TD*%
D26*
%TO.C,D23*%
X121443750Y-129063750D03*
D27*
X121443750Y-121443750D03*
%TD*%
D26*
%TO.C,D57*%
X26193750Y-167163750D03*
D27*
X26193750Y-159543750D03*
%TD*%
D24*
%TO.C,S7*%
X-158750Y-184785000D03*
D29*
X-158750Y-169545000D03*
D24*
X-23971250Y-184785000D03*
D29*
X-23971250Y-169545000D03*
%TD*%
D26*
%TO.C,D62*%
X216693750Y-186213750D03*
D27*
X216693750Y-178593750D03*
%TD*%
D26*
%TO.C,D25*%
X83343750Y-129063750D03*
D27*
X83343750Y-121443750D03*
%TD*%
D23*
%TO.C,MX41*%
X59690000Y-138430000D03*
D24*
X54610000Y-138430000D03*
D23*
X49530000Y-138430000D03*
D25*
X50800000Y-135890000D03*
X57150000Y-133350000D03*
%TD*%
D26*
%TO.C,D33*%
X235743750Y-148113750D03*
D27*
X235743750Y-140493750D03*
%TD*%
D23*
%TO.C,MX43*%
X21590000Y-138430000D03*
D24*
X16510000Y-138430000D03*
D23*
X11430000Y-138430000D03*
D25*
X12700000Y-135890000D03*
X19050000Y-133350000D03*
%TD*%
D26*
%TO.C,D59*%
X-11906250Y-167163750D03*
D27*
X-11906250Y-159543750D03*
%TD*%
D26*
%TO.C,D8*%
X102393750Y-110013750D03*
D27*
X102393750Y-102393750D03*
%TD*%
D26*
%TO.C,D61*%
X235743750Y-186213750D03*
D27*
X235743750Y-178593750D03*
%TD*%
D24*
%TO.C,S2*%
X204628750Y-130175000D03*
D28*
X204628750Y-145415000D03*
D24*
X228441250Y-130175000D03*
D28*
X228441250Y-145415000D03*
%TD*%
D26*
%TO.C,D18*%
X216693750Y-129063750D03*
D27*
X216693750Y-121443750D03*
%TD*%
D23*
%TO.C,MX55*%
X59690000Y-157480000D03*
D24*
X54610000Y-157480000D03*
D23*
X49530000Y-157480000D03*
D25*
X50800000Y-154940000D03*
X57150000Y-152400000D03*
%TD*%
D26*
%TO.C,D15*%
X-30956250Y-110013750D03*
D27*
X-30956250Y-102393750D03*
%TD*%
D23*
%TO.C,MX53*%
X97790000Y-157480000D03*
D24*
X92710000Y-157480000D03*
D23*
X87630000Y-157480000D03*
D25*
X88900000Y-154940000D03*
X95250000Y-152400000D03*
%TD*%
D26*
%TO.C,D42*%
X45243750Y-148113750D03*
D27*
X45243750Y-140493750D03*
%TD*%
D26*
%TO.C,D46*%
X254793750Y-167163750D03*
D27*
X254793750Y-159543750D03*
%TD*%
D26*
%TO.C,D4*%
X178593750Y-110013750D03*
D27*
X178593750Y-102393750D03*
%TD*%
D26*
%TO.C,D52*%
X121443750Y-167163750D03*
D27*
X121443750Y-159543750D03*
%TD*%
D26*
%TO.C,D47*%
X235743750Y-167163750D03*
D27*
X235743750Y-159543750D03*
%TD*%
D23*
%TO.C,MX4*%
X173990000Y-100330000D03*
D24*
X168910000Y-100330000D03*
D23*
X163830000Y-100330000D03*
D25*
X165100000Y-97790000D03*
X171450000Y-95250000D03*
%TD*%
D23*
%TO.C,MX33*%
X221615000Y-138430000D03*
D24*
X216535000Y-138430000D03*
D23*
X211455000Y-138430000D03*
D25*
X212725000Y-135890000D03*
X219075000Y-133350000D03*
%TD*%
D23*
%TO.C,MX30*%
X-16510000Y-119380000D03*
D24*
X-21590000Y-119380000D03*
D23*
X-26670000Y-119380000D03*
D25*
X-25400000Y-116840000D03*
X-19050000Y-114300000D03*
%TD*%
D23*
%TO.C,MX45*%
X-26035000Y-138430000D03*
D24*
X-31115000Y-138430000D03*
D23*
X-36195000Y-138430000D03*
D25*
X-34925000Y-135890000D03*
X-28575000Y-133350000D03*
%TD*%
D26*
%TO.C,D31*%
X-30956250Y-129063750D03*
D27*
X-30956250Y-121443750D03*
%TD*%
D26*
%TO.C,D66*%
X26193750Y-186213750D03*
D27*
X26193750Y-178593750D03*
%TD*%
D26*
%TO.C,D1*%
X254793750Y-110013750D03*
D27*
X254793750Y-102393750D03*
%TD*%
D26*
%TO.C,D12*%
X26193750Y-110013750D03*
D27*
X26193750Y-102393750D03*
%TD*%
D23*
%TO.C,MX50*%
X154940000Y-157480000D03*
D24*
X149860000Y-157480000D03*
D23*
X144780000Y-157480000D03*
D25*
X146050000Y-154940000D03*
X152400000Y-152400000D03*
%TD*%
D23*
%TO.C,MX39*%
X97790000Y-138430000D03*
D24*
X92710000Y-138430000D03*
D23*
X87630000Y-138430000D03*
D25*
X88900000Y-135890000D03*
X95250000Y-133350000D03*
%TD*%
D26*
%TO.C,D19*%
X197643750Y-129063750D03*
D27*
X197643750Y-121443750D03*
%TD*%
D26*
%TO.C,D13*%
X7143750Y-110013750D03*
D27*
X7143750Y-102393750D03*
%TD*%
D26*
%TO.C,D64*%
X178593750Y-186213750D03*
D27*
X178593750Y-178593750D03*
%TD*%
D23*
%TO.C,MX52*%
X116840000Y-157480000D03*
D24*
X111760000Y-157480000D03*
D23*
X106680000Y-157480000D03*
D25*
X107950000Y-154940000D03*
X114300000Y-152400000D03*
%TD*%
D26*
%TO.C,D28*%
X26193750Y-129063750D03*
D27*
X26193750Y-121443750D03*
%TD*%
D23*
%TO.C,MX25*%
X78740000Y-119380000D03*
D24*
X73660000Y-119380000D03*
D23*
X68580000Y-119380000D03*
D25*
X69850000Y-116840000D03*
X76200000Y-114300000D03*
%TD*%
D23*
%TO.C,MX31*%
X-35560000Y-119380000D03*
D24*
X-40640000Y-119380000D03*
D23*
X-45720000Y-119380000D03*
D25*
X-44450000Y-116840000D03*
X-38100000Y-114300000D03*
%TD*%
D26*
%TO.C,D9*%
X83343750Y-110013750D03*
D27*
X83343750Y-102393750D03*
%TD*%
D23*
%TO.C,MX37*%
X135890000Y-138430000D03*
D24*
X130810000Y-138430000D03*
D23*
X125730000Y-138430000D03*
D25*
X127000000Y-135890000D03*
X133350000Y-133350000D03*
%TD*%
D23*
%TO.C,MX14*%
X-16510000Y-100330000D03*
D24*
X-21590000Y-100330000D03*
D23*
X-26670000Y-100330000D03*
D25*
X-25400000Y-97790000D03*
X-19050000Y-95250000D03*
%TD*%
D23*
%TO.C,MX13*%
X2540000Y-100330000D03*
D24*
X-2540000Y-100330000D03*
D23*
X-7620000Y-100330000D03*
D25*
X-6350000Y-97790000D03*
X0Y-95250000D03*
%TD*%
D23*
%TO.C,MX26*%
X59690000Y-119380000D03*
D24*
X54610000Y-119380000D03*
D23*
X49530000Y-119380000D03*
D25*
X50800000Y-116840000D03*
X57150000Y-114300000D03*
%TD*%
D23*
%TO.C,MX2*%
X221773750Y-100330000D03*
D24*
X216693750Y-100330000D03*
D23*
X211613750Y-100330000D03*
D25*
X212883750Y-97790000D03*
X219233750Y-95250000D03*
%TD*%
D23*
%TO.C,MX6*%
X135890000Y-100330000D03*
D24*
X130810000Y-100330000D03*
D23*
X125730000Y-100330000D03*
D25*
X127000000Y-97790000D03*
X133350000Y-95250000D03*
%TD*%
D26*
%TO.C,D24*%
X102393750Y-129063750D03*
D27*
X102393750Y-121443750D03*
%TD*%
D23*
%TO.C,MX1*%
X250190000Y-100330000D03*
D24*
X245110000Y-100330000D03*
D23*
X240030000Y-100330000D03*
D25*
X241300000Y-97790000D03*
X247650000Y-95250000D03*
%TD*%
D26*
%TO.C,D11*%
X45243750Y-110013750D03*
D27*
X45243750Y-102393750D03*
%TD*%
D26*
%TO.C,D65*%
X102393750Y-186213750D03*
D27*
X102393750Y-178593750D03*
%TD*%
D26*
%TO.C,D26*%
X64293750Y-129063750D03*
D27*
X64293750Y-121443750D03*
%TD*%
D26*
%TO.C,D68*%
X-30956250Y-186213750D03*
D27*
X-30956250Y-178593750D03*
%TD*%
D26*
%TO.C,D37*%
X140493750Y-148113750D03*
D27*
X140493750Y-140493750D03*
%TD*%
D23*
%TO.C,MX3*%
X193040000Y-100330000D03*
D24*
X187960000Y-100330000D03*
D23*
X182880000Y-100330000D03*
D25*
X184150000Y-97790000D03*
X190500000Y-95250000D03*
%TD*%
D26*
%TO.C,D38*%
X121443750Y-148113750D03*
D27*
X121443750Y-140493750D03*
%TD*%
D23*
%TO.C,MX8*%
X97790000Y-100330000D03*
D24*
X92710000Y-100330000D03*
D23*
X87630000Y-100330000D03*
D25*
X88900000Y-97790000D03*
X95250000Y-95250000D03*
%TD*%
D24*
%TO.C,S4*%
X228441250Y-165735000D03*
D28*
X228441250Y-150495000D03*
D24*
X204628750Y-165735000D03*
D28*
X204628750Y-150495000D03*
%TD*%
D26*
%TO.C,D35*%
X178593750Y-148113750D03*
D27*
X178593750Y-140493750D03*
%TD*%
D23*
%TO.C,MX48*%
X193040000Y-157480000D03*
D24*
X187960000Y-157480000D03*
D23*
X182880000Y-157480000D03*
D25*
X184150000Y-154940000D03*
X190500000Y-152400000D03*
%TD*%
D23*
%TO.C,MX57*%
X21590000Y-157480000D03*
D24*
X16510000Y-157480000D03*
D23*
X11430000Y-157480000D03*
D25*
X12700000Y-154940000D03*
X19050000Y-152400000D03*
%TD*%
D26*
%TO.C,D20*%
X178593750Y-129063750D03*
D27*
X178593750Y-121443750D03*
%TD*%
D26*
%TO.C,D5*%
X159543750Y-110013750D03*
D27*
X159543750Y-102393750D03*
%TD*%
D26*
%TO.C,D48*%
X197643750Y-167163750D03*
D27*
X197643750Y-159543750D03*
%TD*%
D26*
%TO.C,D17*%
X235743750Y-129063750D03*
D27*
X235743750Y-121443750D03*
%TD*%
D26*
%TO.C,D30*%
X-11906250Y-129063750D03*
D27*
X-11906250Y-121443750D03*
%TD*%
D23*
%TO.C,MX63*%
X193040000Y-176530000D03*
D24*
X187960000Y-176530000D03*
D23*
X182880000Y-176530000D03*
D25*
X184150000Y-173990000D03*
X190500000Y-171450000D03*
%TD*%
D23*
%TO.C,MX17*%
X231140000Y-119380000D03*
D24*
X226060000Y-119380000D03*
D23*
X220980000Y-119380000D03*
D25*
X222250000Y-116840000D03*
X228600000Y-114300000D03*
%TD*%
D23*
%TO.C,MX42*%
X40640000Y-138430000D03*
D24*
X35560000Y-138430000D03*
D23*
X30480000Y-138430000D03*
D25*
X31750000Y-135890000D03*
X38100000Y-133350000D03*
%TD*%
D23*
%TO.C,MX64*%
X173990000Y-176530000D03*
D24*
X168910000Y-176530000D03*
D23*
X163830000Y-176530000D03*
D25*
X165100000Y-173990000D03*
X171450000Y-171450000D03*
%TD*%
D23*
%TO.C,MX60*%
X250190000Y-176530000D03*
D24*
X245110000Y-176530000D03*
D23*
X240030000Y-176530000D03*
D25*
X241300000Y-173990000D03*
X247650000Y-171450000D03*
%TD*%
D26*
%TO.C,D2*%
X235743750Y-110013750D03*
D27*
X235743750Y-102393750D03*
%TD*%
D26*
%TO.C,D49*%
X178593750Y-167163750D03*
D27*
X178593750Y-159543750D03*
%TD*%
D23*
%TO.C,MX46*%
X250190000Y-157480000D03*
D24*
X245110000Y-157480000D03*
D23*
X240030000Y-157480000D03*
D25*
X241300000Y-154940000D03*
X247650000Y-152400000D03*
%TD*%
D26*
%TO.C,D54*%
X83343750Y-167163750D03*
D27*
X83343750Y-159543750D03*
%TD*%
D24*
%TO.C,S1*%
X228441250Y-108585000D03*
D28*
X228441250Y-93345000D03*
D24*
X204628750Y-108585000D03*
D28*
X204628750Y-93345000D03*
%TD*%
D26*
%TO.C,D22*%
X140493750Y-129063750D03*
D27*
X140493750Y-121443750D03*
%TD*%
D26*
%TO.C,D56*%
X45243750Y-167163750D03*
D27*
X45243750Y-159543750D03*
%TD*%
D26*
%TO.C,D67*%
X7143750Y-186213750D03*
D27*
X7143750Y-178593750D03*
%TD*%
D23*
%TO.C,MX61*%
X231140000Y-176530000D03*
D24*
X226060000Y-176530000D03*
D23*
X220980000Y-176530000D03*
D25*
X222250000Y-173990000D03*
X228600000Y-171450000D03*
%TD*%
D26*
%TO.C,D16*%
X254793750Y-129063750D03*
D27*
X254793750Y-121443750D03*
%TD*%
D26*
%TO.C,D58*%
X7143750Y-167163750D03*
D27*
X7143750Y-159543750D03*
%TD*%
D23*
%TO.C,MX7*%
X116840000Y-100330000D03*
D24*
X111760000Y-100330000D03*
D23*
X106680000Y-100330000D03*
D25*
X107950000Y-97790000D03*
X114300000Y-95250000D03*
%TD*%
D23*
%TO.C,MX36*%
X154940000Y-138430000D03*
D24*
X149860000Y-138430000D03*
D23*
X144780000Y-138430000D03*
D25*
X146050000Y-135890000D03*
X152400000Y-133350000D03*
%TD*%
D23*
%TO.C,MX15*%
X-35560000Y-100330000D03*
D24*
X-40640000Y-100330000D03*
D23*
X-45720000Y-100330000D03*
D25*
X-44450000Y-97790000D03*
X-38100000Y-95250000D03*
%TD*%
D23*
%TO.C,MX67*%
X-6985000Y-176530000D03*
D24*
X-12065000Y-176530000D03*
D23*
X-17145000Y-176530000D03*
D25*
X-15875000Y-173990000D03*
X-9525000Y-171450000D03*
%TD*%
D23*
%TO.C,MX23*%
X116840000Y-119380000D03*
D24*
X111760000Y-119380000D03*
D23*
X106680000Y-119380000D03*
D25*
X107950000Y-116840000D03*
X114300000Y-114300000D03*
%TD*%
D23*
%TO.C,MX16*%
X250190000Y-119380000D03*
D24*
X245110000Y-119380000D03*
D23*
X240030000Y-119380000D03*
D25*
X241300000Y-116840000D03*
X247650000Y-114300000D03*
%TD*%
D23*
%TO.C,MX10*%
X59690000Y-100330000D03*
D24*
X54610000Y-100330000D03*
D23*
X49530000Y-100330000D03*
D25*
X50800000Y-97790000D03*
X57150000Y-95250000D03*
%TD*%
D26*
%TO.C,D21*%
X159543750Y-129063750D03*
D27*
X159543750Y-121443750D03*
%TD*%
D26*
%TO.C,D34*%
X197643750Y-148113750D03*
D27*
X197643750Y-140493750D03*
%TD*%
D23*
%TO.C,MX40*%
X78740000Y-138430000D03*
D24*
X73660000Y-138430000D03*
D23*
X68580000Y-138430000D03*
D25*
X69850000Y-135890000D03*
X76200000Y-133350000D03*
%TD*%
D23*
%TO.C,MX44*%
X2540000Y-138430000D03*
D24*
X-2540000Y-138430000D03*
D23*
X-7620000Y-138430000D03*
D25*
X-6350000Y-135890000D03*
X0Y-133350000D03*
%TD*%
D26*
%TO.C,D7*%
X121443750Y-110013750D03*
D27*
X121443750Y-102393750D03*
%TD*%
D23*
%TO.C,MX62*%
X212090000Y-176530000D03*
D24*
X207010000Y-176530000D03*
D23*
X201930000Y-176530000D03*
D25*
X203200000Y-173990000D03*
X209550000Y-171450000D03*
%TD*%
D23*
%TO.C,MX19*%
X193040000Y-119380000D03*
D24*
X187960000Y-119380000D03*
D23*
X182880000Y-119380000D03*
D25*
X184150000Y-116840000D03*
X190500000Y-114300000D03*
%TD*%
D26*
%TO.C,D27*%
X45243750Y-129063750D03*
D27*
X45243750Y-121443750D03*
%TD*%
D23*
%TO.C,MX32*%
X250190000Y-138430000D03*
D24*
X245110000Y-138430000D03*
D23*
X240030000Y-138430000D03*
D25*
X241300000Y-135890000D03*
X247650000Y-133350000D03*
%TD*%
D26*
%TO.C,D41*%
X64293750Y-148113750D03*
D27*
X64293750Y-140493750D03*
%TD*%
D23*
%TO.C,MX56*%
X40640000Y-157480000D03*
D24*
X35560000Y-157480000D03*
D23*
X30480000Y-157480000D03*
D25*
X31750000Y-154940000D03*
X38100000Y-152400000D03*
%TD*%
D26*
%TO.C,D39*%
X102393750Y-148113750D03*
D27*
X102393750Y-140493750D03*
%TD*%
M02*
