M48
; DRILL file KiCad 10.0.5 date 2026-08-05T23:03:52
; FORMAT={-:-/ absolute / metric / decimal}
; #@! TF.CreationDate,2026-08-05T23:03:52-04:00
; #@! TF.GenerationSoftware,Kicad,Pcbnew,10.0.5
; #@! TF.FileFunction,NonPlated,1,2,NPTH
FMAT,2
METRIC
; #@! TA.AperFunction,NonPlated,NPTH,ComponentDrill
T1C1.750
; #@! TA.AperFunction,NonPlated,NPTH,ComponentDrill
T2C2.200
; #@! TA.AperFunction,NonPlated,NPTH,ComponentDrill
T3C3.048
; #@! TA.AperFunction,NonPlated,NPTH,ComponentDrill
T4C3.988
%
G90
G05
T1
X-45.72Y-100.33
X-45.72Y-119.38
X-45.72Y-176.53
X-36.195Y-138.43
X-36.195Y-157.48
X-35.56Y-100.33
X-35.56Y-119.38
X-35.56Y-176.53
X-26.67Y-100.33
X-26.67Y-119.38
X-26.035Y-138.43
X-26.035Y-157.48
X-17.145Y-176.53
X-16.51Y-100.33
X-16.51Y-119.38
X-7.62Y-100.33
X-7.62Y-119.38
X-7.62Y-138.43
X-7.62Y-157.48
X-6.985Y-176.53
X2.54Y-100.33
X2.54Y-119.38
X2.54Y-138.43
X2.54Y-157.48
X11.43Y-100.33
X11.43Y-119.38
X11.43Y-138.43
X11.43Y-157.48
X11.43Y-176.53
X21.59Y-100.33
X21.59Y-119.38
X21.59Y-138.43
X21.59Y-157.48
X21.59Y-176.53
X30.48Y-100.33
X30.48Y-119.38
X30.48Y-138.43
X30.48Y-157.48
X40.64Y-100.33
X40.64Y-119.38
X40.64Y-138.43
X40.64Y-157.48
X49.53Y-100.33
X49.53Y-119.38
X49.53Y-138.43
X49.53Y-157.48
X59.69Y-100.33
X59.69Y-119.38
X59.69Y-138.43
X59.69Y-157.48
X68.58Y-100.33
X68.58Y-119.38
X68.58Y-138.43
X68.58Y-157.48
X78.74Y-100.33
X78.74Y-119.38
X78.74Y-138.43
X78.74Y-157.48
X87.63Y-100.33
X87.63Y-119.38
X87.63Y-138.43
X87.63Y-157.48
X87.63Y-176.53
X97.79Y-100.33
X97.79Y-119.38
X97.79Y-138.43
X97.79Y-157.48
X97.79Y-176.53
X106.68Y-100.33
X106.68Y-119.38
X106.68Y-138.43
X106.68Y-157.48
X116.84Y-100.33
X116.84Y-119.38
X116.84Y-138.43
X116.84Y-157.48
X125.73Y-100.33
X125.73Y-119.38
X125.73Y-138.43
X125.73Y-157.48
X135.89Y-100.33
X135.89Y-119.38
X135.89Y-138.43
X135.89Y-157.48
X144.78Y-100.33
X144.78Y-119.38
X144.78Y-138.43
X144.78Y-157.48
X154.94Y-100.33
X154.94Y-119.38
X154.94Y-138.43
X154.94Y-157.48
X163.83Y-100.33
X163.83Y-119.38
X163.83Y-138.43
X163.83Y-157.48
X163.83Y-176.53
X173.99Y-100.33
X173.99Y-119.38
X173.99Y-138.43
X173.99Y-157.48
X173.99Y-176.53
X182.88Y-100.33
X182.88Y-119.38
X182.88Y-138.43
X182.88Y-157.48
X182.88Y-176.53
X193.04Y-100.33
X193.04Y-119.38
X193.04Y-138.43
X193.04Y-157.48
X193.04Y-176.53
X201.93Y-119.38
X201.93Y-176.53
X211.455Y-138.43
X211.455Y-157.48
X211.614Y-100.33
X212.09Y-119.38
X212.09Y-176.53
X220.98Y-119.38
X220.98Y-176.53
X221.615Y-138.43
X221.615Y-157.48
X221.774Y-100.33
X231.14Y-119.38
X231.14Y-176.53
X240.03Y-100.33
X240.03Y-119.38
X240.03Y-138.43
X240.03Y-157.48
X240.03Y-176.53
X250.19Y-100.33
X250.19Y-119.38
X250.19Y-138.43
X250.19Y-157.48
X250.19Y-176.53
T2
X-31.0Y-167.0
X-12.0Y-94.0
X74.0Y-171.0
X112.0Y-171.0
X260.0Y-95.0
X273.0Y-179.0
T3
X-43.021Y-145.415
X-43.021Y-150.495
X-23.971Y-169.545
X-19.209Y-145.415
X-19.209Y-150.495
X-0.159Y-169.545
T4
X-43.021Y-130.175
X-43.021Y-165.735
X-40.64Y-100.33
X-40.64Y-119.38
X-40.64Y-176.53
X-31.115Y-138.43
X-31.115Y-157.48
X-23.971Y-184.785
X-21.59Y-100.33
X-21.59Y-119.38
X-19.209Y-130.175
X-19.209Y-165.735
X-12.065Y-176.53
X-2.54Y-100.33
X-2.54Y-119.38
X-2.54Y-138.43
X-2.54Y-157.48
X-0.159Y-184.785
X16.51Y-100.33
X16.51Y-119.38
X16.51Y-138.43
X16.51Y-157.48
X16.51Y-176.53
X35.56Y-100.33
X35.56Y-119.38
X35.56Y-138.43
X35.56Y-157.48
X35.56Y-168.275
X54.61Y-100.33
X54.61Y-119.38
X54.61Y-138.43
X54.61Y-157.48
X73.66Y-100.33
X73.66Y-119.38
X73.66Y-138.43
X73.66Y-157.48
X92.71Y-100.33
X92.71Y-119.38
X92.71Y-138.43
X92.71Y-157.48
X92.71Y-176.53
X111.76Y-100.33
X111.76Y-119.38
X111.76Y-138.43
X111.76Y-157.48
X130.81Y-100.33
X130.81Y-119.38
X130.81Y-138.43
X130.81Y-157.48
X149.86Y-100.33
X149.86Y-119.38
X149.86Y-138.43
X149.86Y-157.48
X149.86Y-168.275
X168.91Y-100.33
X168.91Y-119.38
X168.91Y-138.43
X168.91Y-157.48
X168.91Y-176.53
X187.96Y-100.33
X187.96Y-119.38
X187.96Y-138.43
X187.96Y-157.48
X187.96Y-176.53
X204.629Y-108.585
X204.629Y-130.175
X204.629Y-165.735
X207.01Y-119.38
X207.01Y-176.53
X216.535Y-138.43
X216.535Y-157.48
X216.694Y-100.33
X226.06Y-119.38
X226.06Y-176.53
X228.441Y-108.585
X228.441Y-130.175
X228.441Y-165.735
X245.11Y-100.33
X245.11Y-119.38
X245.11Y-138.43
X245.11Y-157.48
X245.11Y-176.53
M30
